# Blender v3.5.1 OBJ File: ''
# www.blender.org
mtllib airship.mtl
o Plane
v -0.562932 -0.131234 0.539542
v -0.004313 0.419363 0.539542
v -0.004313 -0.282288 -2.282002
v -0.004313 0.202330 0.835611
v -0.562932 -0.131234 0.539542
v -0.562932 -0.131234 0.539542
v -0.562932 -0.131234 0.539542
v -2.754062 -0.987043 0.539542
v -1.364899 -0.288794 0.045612
v -1.355805 -0.116101 0.292577
v -1.346710 -0.288794 0.539542
v -0.004313 -0.182189 0.266930
v 0.554306 -0.131234 0.539542
v 0.554306 -0.131234 0.539542
v 0.554306 -0.131234 0.539542
v 0.554306 -0.131234 0.539542
v 2.745436 -0.987043 0.539542
v 1.347178 -0.116101 0.292577
v 1.356273 -0.288794 0.045612
v 1.338084 -0.288794 0.539542
v -0.788427 0.191119 0.539542
v -0.985511 0.976315 2.172515
v -0.690583 -0.357896 -0.199994
v -1.071967 -0.131234 0.539542
v 0.779801 0.191119 0.539542
v 0.976885 0.976315 2.172515
v 0.681957 -0.357896 -0.199994
v 1.063341 -0.131234 0.539542
vt 0.143989 0.426948
vt 0.136150 0.382533
vt 0.107092 0.433271
vt 0.110409 0.009847
vt 0.122198 0.069393
vt 0.234550 0.047150
vt 0.378061 0.262146
vt 0.378061 0.262146
vt 0.378061 0.262146
vt 0.378061 0.262146
vt 0.278872 0.490524
vt 0.247915 0.447895
vt 0.298550 0.446031
vt 0.302309 0.393385
vt 0.302309 0.439743
vt 0.251675 0.395249
vt 0.103091 0.369431
vt 0.149966 0.295728
vt 0.083852 0.322895
vt 0.359806 0.351644
vt 0.312837 0.387114
vt 0.355965 0.401404
vt 0.095852 0.405828
vt 0.009847 0.091637
vt 0.397755 0.262146
vt 0.397755 0.262146
vt 0.397755 0.262146
vt 0.397755 0.262146
vt 0.052793 0.443347
vt 0.047114 0.485098
vt 0.008881 0.484783
vt 0.076046 0.485412
vt 0.484827 0.425299
vt 0.383557 0.486888
vt 0.484827 0.490617
vt 0.387149 0.406210
vt 0.384675 0.697608
vt 0.439372 0.734706
vt 0.419841 0.560628
vt 0.431785 0.851121
vt 0.439372 0.734706
vt 0.134341 0.822532
vt 0.134341 0.983228
vt 0.083706 0.985093
vt 0.033071 0.986958
vt 0.455146 0.919611
vt 0.438698 0.841878
vt 0.404890 0.891070
vt 0.416084 0.964663
vt 0.306830 0.731648
vt 0.266831 0.796592
vt 0.306830 0.795119
vt 0.233565 0.747089
vt 0.254200 0.608468
vt 0.254200 0.761085
vt 0.392089 0.728476
vt 0.365831 0.813792
vt 0.361301 0.707594
vt 0.240367 0.659510
vt 0.240367 0.538168
vt 0.223961 0.648383
vt 0.125670 0.585608
vt 0.096471 0.565804
vt 0.100767 0.666519
vt 0.298312 0.833479
vt 0.267300 0.733915
vt 0.298312 0.735057
vt 0.236287 0.732773
vt 0.146844 0.910472
vt 0.146844 0.800828
vt 0.114811 0.902182
vt 0.126768 0.954932
vt 0.353339 0.775941
vt 0.353339 0.713632
vt 0.314073 0.712186
vt 0.803231 0.846716
vt 0.680024 0.879301
vt 0.780587 0.961091
vt 0.904727 0.923789
vn -0.6912 0.7013 -0.1744
vn -0.6223 0.6313 0.4628
vn 0.0000 0.0000 1.0000
vn 0.5242 -0.7069 0.4750
vn 0.3739 -0.7536 -0.5407
vn -0.4444 0.8957 0.0164
vn 0.0718 0.9967 -0.0391
vn 0.6912 0.7013 -0.1744
vn 0.6223 0.6313 0.4628
vn -0.5242 -0.7069 0.4750
vn -0.3739 -0.7536 -0.5407
vn 0.4444 0.8957 0.0164
vn -0.0718 0.9967 -0.0391
vn -0.8069 -0.5645 0.1740
vn -0.7811 -0.5464 0.3023
vn 0.6952 -0.6115 0.3779
vn 0.6468 -0.5689 0.5079
vn 0.1620 -0.8059 -0.5695
vn -0.1919 -0.8009 0.5671
vn 0.0000 0.8716 -0.4902
vn -0.1971 0.9804 0.0073
vn 0.8069 -0.5645 0.1740
vn 0.7811 -0.5464 0.3023
vn -0.6952 -0.6115 0.3779
vn -0.6468 -0.5689 0.5079
vn -0.1620 -0.8059 -0.5695
vn 0.1919 -0.8009 0.5671
vn 0.1971 0.9804 0.0073
vn -0.1940 0.8127 -0.5495
vn 0.1940 0.8127 -0.5495
usemtl gray
s 1
f 1/1/1 2/2/1 3/3/1
f 4/4/2 2/5/2 1/6/2
f 5/7/3 1/8/3 6/9/3 7/10/3
f 8/11/4 9/12/4 10/13/4
f 11/14/5 8/15/5 10/16/5
f 8/17/6 11/18/6 9/19/6
f 3/20/7 7/21/7 12/22/7
f 13/23/8 3/3/8 2/2/8
f 4/4/9 13/24/9 2/5/9
f 14/25/3 15/26/3 16/27/3 13/28/3
f 17/29/10 18/30/10 19/31/10
f 20/32/11 18/30/11 17/29/11
f 17/33/12 19/34/12 20/35/12
f 3/20/13 12/22/13 15/36/13
usemtl blue
f 21/37/14 7/38/14 22/39/14
f 7/38/15 21/37/15 23/40/15
f 24/41/16 21/37/16 22/39/16
f 24/41/17 23/40/17 21/37/17
f 7/42/18 11/43/18 10/44/18
f 9/45/19 7/42/19 10/44/19
f 7/46/20 23/47/20 24/48/20 22/49/20
f 7/50/21 9/51/21 11/52/21
f 25/53/22 26/54/22 15/55/22
f 15/56/23 27/57/23 25/58/23
f 28/59/24 26/60/24 25/61/24
f 28/62/25 25/63/25 27/64/25
f 15/65/26 18/66/26 20/67/26
f 19/68/27 18/66/27 15/65/27
f 15/69/20 26/70/20 28/71/20 27/72/20
f 15/73/28 20/74/28 19/75/28
usemtl orange
f 12/76/29 7/77/29 4/78/29
f 12/76/30 4/78/30 15/79/30
